<!DOCTYPE svg PUBLIC "-//W3C//DTD SVG 1.1//EN" "http://www.w3.org/Graphics/SVG/1.1/DTD/svg11.dtd">
<!-- Uploaded to: SVG Repo, www.svgrepo.com, Transformed by: SVG Repo Mixer Tools -->
<svg fill="#FBBDD0" height="800px" width="800px" version="1.1" id="Layer_1" xmlns="http://www.w3.org/2000/svg" xmlns:xlink="http://www.w3.org/1999/xlink" viewBox="0 0 511.998 511.998" xml:space="preserve">
<g id="SVGRepo_bgCarrier" stroke-width="0"/>
<g id="SVGRepo_tracerCarrier" stroke-linecap="round" stroke-linejoin="round"/>
<g id="SVGRepo_iconCarrier"> <g> <g> <path d="M345.727,84.644c-2.959-3.471-8.172-3.885-11.644-0.927c-3.471,2.959-3.886,8.173-0.927,11.644 c7.527,8.83,11.506,18.667,11.506,28.446c0,14.926-8.958,29.389-25.223,40.723c-16.926,11.794-40.049,18.559-63.442,18.559 c-23.394,0-46.517-6.764-63.441-18.558c-16.265-11.335-25.222-25.797-25.222-40.724c0-14.927,8.958-29.389,25.223-40.724 c16.925-11.794,40.049-18.559,63.441-18.559c19.127,0,37.534,4.295,53.23,12.42c4.052,2.097,9.035,0.512,11.132-3.537 c2.098-4.052,0.513-9.035-3.537-11.132c-18.034-9.336-39.066-14.271-60.825-14.271c-27.083,0-52.968,7.644-72.886,21.525 c-20.526,14.304-32.298,34.086-32.298,54.276s11.772,39.973,32.298,54.276c19.918,13.881,45.803,21.524,72.886,21.524 s52.968-7.644,72.887-21.524c20.526-14.304,32.298-34.086,32.298-54.276C361.181,110.047,355.837,96.504,345.727,84.644z"/> </g> </g> <g> <g> <path d="M328.885,270.691c-19.919-13.881-45.804-21.524-72.887-21.524c-23.928,0.001-47.511,6.167-66.406,17.364 c-3.924,2.326-5.22,7.392-2.894,11.317c2.326,3.924,7.392,5.221,11.317,2.894c16.383-9.709,36.975-15.056,57.982-15.056 c23.394,0,46.517,6.764,63.442,18.558c16.265,11.335,25.223,25.797,25.223,40.723c0,14.927-8.958,29.389-25.223,40.724 c-16.926,11.794-40.049,18.559-63.442,18.559c-23.394,0-46.517-6.764-63.441-18.559c-16.265-11.335-25.222-25.797-25.222-40.724 c0-8.429,2.842-16.685,8.447-24.537c2.651-3.714,1.79-8.871-1.923-11.522c-3.714-2.652-8.872-1.79-11.522,1.923 c-7.538,10.559-11.522,22.363-11.522,34.136c0,20.19,11.772,39.974,32.298,54.277c19.918,13.881,45.803,21.524,72.886,21.524 c27.083,0,52.968-7.644,72.887-21.524c20.526-14.304,32.298-34.086,32.298-54.277 C361.182,304.777,349.411,284.994,328.885,270.691z"/> </g> </g> <g> <g> <path d="M365.583,258.54c-14.722-15.046-34.513-26.894-56.717-34.152c22.202-7.259,41.995-19.107,56.717-34.152 c18.733-19.149,28.637-42.12,28.637-66.428s-9.904-47.279-28.639-66.427c-16.354-16.714-38.964-29.488-64.189-36.398V8.26 c0-4.562-3.698-8.26-8.26-8.26h-74.27c-4.562,0-8.26,3.698-8.26,8.26v12.723c-25.225,6.908-47.834,19.682-64.188,36.397 c-18.736,19.149-28.639,42.12-28.639,66.428s9.904,47.278,28.639,66.427c14.721,15.046,34.513,26.895,56.716,34.152 c-22.202,7.259-41.995,19.106-56.716,34.152c-18.736,19.149-28.639,42.12-28.639,66.428v78.192 c0,29.479,14.657,57.057,41.27,77.652c25.986,20.111,60.418,31.186,96.953,31.186c27.835,0,54.665-6.469,77.59-18.707 c4.024-2.149,5.545-7.152,3.396-11.176c-2.149-4.024-7.153-5.545-11.176-3.396c-20.538,10.964-44.678,16.76-69.81,16.76 c-67.107,0-121.703-41.414-121.703-92.321c0,0,0-26.381,0-26.384c0,1.32,3.492,4.776,4.309,5.803 c1.719,2.162,3.522,4.257,5.396,6.285c4.614,4.992,9.666,9.6,15.045,13.756c22.737,17.598,51.942,28.277,83.364,30.672 c4.489,0.343,9.023,0.515,13.59,0.515c1.175,0,2.348-0.012,3.519-0.035c35.222-0.687,68.284-11.687,93.433-31.15 c0.011-0.009,0.023-0.019,0.034-0.028c9.443-7.313,17.94-15.964,24.719-25.818v26.384c0,21.034-9.153,40.875-26.47,57.378 c-3.303,3.146-3.428,8.375-0.281,11.678c3.146,3.303,8.375,3.428,11.678,0.281c20.373-19.415,31.592-44.039,31.592-69.335 c0,0,0-78.189,0-78.192C394.223,300.66,384.319,277.689,365.583,258.54z M227.122,16.519h57.751v10.882v2.534h-57.751V16.519z M158.223,178.682c-15.654-15.999-23.928-34.974-23.928-54.874s8.274-38.876,23.928-54.875 c13.396-13.691,31.727-24.414,52.38-30.767v0.03c0,4.562,3.698,8.26,8.26,8.26h74.27c4.562,0,8.26-3.698,8.26-8.26v-0.03 c20.653,6.353,38.985,17.076,52.381,30.768c15.654,15.998,23.928,34.974,23.928,54.874s-8.274,38.876-23.928,54.874 c-13.396,13.692-31.728,24.415-52.381,30.768v-0.03c0-4.562-3.698-8.26-8.26-8.26h-74.27c-4.562,0-8.26,3.698-8.26,8.26v0.03 C189.95,203.096,171.619,192.374,158.223,178.682z M284.873,217.68v2.534v8.348v2.534h-57.751V217.68H284.873z M377.669,326.852 c-0.004,0.165-0.003,0.33-0.008,0.495c-0.012,0.348-0.035,0.694-0.053,1.041c-0.059,1.23-0.141,2.457-0.263,3.675 c-0.007,0.068-0.017,0.137-0.024,0.205c-4.699,45.346-52.779,81.583-112.687,84.785c-1.791,0.096-3.591,0.166-5.403,0.203 c-1.075,0.022-2.153,0.033-3.236,0.033c-67.107,0-121.703-41.414-121.703-92.32c0-19.9,8.274-38.876,23.928-54.875 c13.396-13.691,31.727-24.414,52.38-30.767v0.03c0,2.281,0.925,4.346,2.42,5.84s3.559,2.42,5.84,2.42h74.27 c4.562,0,8.26-3.698,8.26-8.26v-0.03c20.655,6.353,38.987,17.076,52.383,30.767c15.654,15.999,23.928,34.975,23.928,54.875 C377.701,325.598,377.685,326.226,377.669,326.852z"/> </g> </g> </g>
</svg>